<?xml version="1.0" encoding="UTF-8"?>
<svg viewBox="0 0 101 28" version="1.1" xmlns="http://www.w3.org/2000/svg" xmlns:xlink="http://www.w3.org/1999/xlink">
    <!-- Generator: Sketch 57.1 (83088) - https://sketch.com -->
    <title>Brand Logo</title>
    <desc>Created with Sketch.</desc>
    <g id="Desktop" stroke="none" stroke-width="1" fill="none" fill-rule="evenodd">
        <g id="Home" transform="translate(-55.000000, -53.000000)" fill="#FEFEFE">
            <path d="M155.983284,75.7513417 C155.955855,75.4493622 155.873088,75.0922594 155.734981,74.6800335 C155.514107,74.2673281 155.321624,73.9653486 155.128179,73.745335 C155.045411,73.6633691 154.935214,73.5531227 154.741769,73.3882323 C154.604144,73.1682186 154.521376,73.0311295 154.438608,72.9486843 L153.445397,71.8217735 C153.279861,71.6295612 153.004129,71.3275817 152.645149,70.9153557 L152.424756,70.6953421 C152.341988,70.558253 152.25922,70.4480065 152.231792,70.4206845 C152.203882,70.3382393 152.093685,70.2284722 151.955579,70.0631024 L151.624508,69.7333217 C151.597079,69.7059997 151.514311,69.5962325 151.404115,69.4586641 C151.266009,69.3210957 151.155812,69.2113285 151.100473,69.1288833 C150.907509,68.8815477 150.741974,68.6893354 150.54901,68.497123 L150.383474,68.3322326 C150.300707,68.2219862 150.245368,68.1400203 150.217939,68.112219 C150.107742,68.0024519 150.024975,67.8922054 149.969636,67.8102395 L149.583226,67.4253355 C149.555798,67.3428903 149.47303,67.2604451 149.362834,67.1506779 C149.224727,67.0131095 149.114531,66.9033423 149.08662,66.8208971 C149.003853,66.7384519 149.003853,66.6008835 149.08662,66.4637944 L149.47303,66.0788904 C149.610655,65.9413219 149.748762,65.8315548 149.858958,65.7491096 L150.990277,64.6226781 C151.073044,64.5948768 151.155812,64.5124316 151.293437,64.3753425 C151.404115,64.2377741 151.486883,64.1280069 151.56965,64.1002056 L152.231792,63.4406441 L152.590291,63.0835413 C152.673059,63.0562194 152.783255,62.9464522 152.921362,62.8088838 L153.197094,62.5342262 C153.279861,62.451781 153.362629,62.3415346 153.500735,62.1493222 L153.997341,61.681973 C154.134967,61.5448839 154.328412,61.3248702 154.548805,61.0228907 C154.741769,60.7204319 154.907304,60.3906511 155.017982,60.0608703 C155.10075,59.9511032 155.155607,59.7588908 155.238375,59.483754 C155.266285,59.044206 155.266285,58.5768568 155.238375,58.0826649 C155.128179,57.4504253 154.907304,56.8733089 154.548805,56.3786378 C154.438608,56.2688706 154.273073,56.0766583 154.052199,55.7741994 L153.252432,55.1424391 C152.838594,54.9502268 152.480095,54.8399803 152.176453,54.7575351 C151.983007,54.6750899 151.707276,54.647768 151.293437,54.647768 C151.155812,54.647768 150.88008,54.6750899 150.438813,54.7575351 C150.245368,54.8399803 150.052404,54.9224255 149.858958,55.0321927 C149.610655,55.1424391 149.334923,55.2800076 149.08662,55.4444186 C148.893656,55.6371103 148.590015,55.9390898 148.176176,56.3786378 C147.928354,56.6810966 147.734909,56.9284322 147.597284,57.0660006 C147.514516,57.1757678 147.37641,57.3406582 147.155535,57.5328705 C146.962571,57.7528842 146.824465,57.9177746 146.714268,58.0275417 C146.576643,58.1651101 146.383198,58.4124457 146.079556,58.7149046 C145.997269,58.8246717 145.859163,58.9895621 145.638289,59.2090964 C145.472753,59.456432 145.307218,59.6764456 145.114254,59.841336 L144.893861,60.0608703 C144.783183,60.1984388 144.700416,60.3082059 144.672987,60.3355279 C144.590219,60.4457744 144.452113,60.6379867 144.259149,60.8853223 C144.038274,61.0775347 143.872739,61.242425 143.762543,61.3526715 L142.962776,62.3142126 C142.934866,62.3415346 142.852098,62.3966578 142.741902,62.479103 C142.714473,62.5615482 142.603795,62.6713153 142.46617,62.8088838 C142.438741,62.8362057 142.383402,62.9191303 142.300635,63.0288974 C142.217867,63.1386646 142.162528,63.2211098 142.135099,63.2489111 L141.831458,63.5508906 L141.7766,63.6060138 C141.7766,63.6060138 141.74869,63.5782125 141.721261,63.4957673 L141.721261,63.1937878 L141.721261,62.4239798 L141.721261,61.8473427 L141.721261,61.6273291 C141.721261,60.4184524 141.74869,59.456432 141.7766,58.7695485 C141.7766,58.4670896 141.74869,58.1924321 141.721261,57.9728978 C141.693832,57.6153157 141.555726,57.2030897 141.335333,56.6810966 C141.114459,56.2688706 140.838246,55.8844459 140.479746,55.5546651 C140.259353,55.3619734 140.01105,55.1975624 139.707408,55.0321927 L139.652069,55.0321927 C139.624641,55.0048707 139.624641,54.9775488 139.624641,54.9775488 C139.514444,54.8951036 139.431677,54.8399803 139.348909,54.8126584 C139.238712,54.7848571 138.962499,54.7024119 138.521232,54.5926447 C138.493803,54.5926447 138.410555,54.5653228 138.272929,54.5380008 C138.134823,54.5101995 138.024626,54.4828776 137.997197,54.4828776 C137.969287,54.4828776 137.91443,54.5101995 137.831662,54.5380008 L137.720984,54.5380008 C137.638217,54.5380008 137.335056,54.5653228 136.811021,54.647768 C136.783111,54.647768 136.672915,54.6750899 136.534808,54.7575351 C136.397183,54.7848571 136.286505,54.8399803 136.259077,54.8677816 C136.176309,54.8951036 136.010774,55.0048707 135.790381,55.1424391 C135.762471,55.1697611 135.679703,55.2248843 135.569506,55.2800076 C135.486739,55.3619734 135.431881,55.4170967 135.348632,55.4444186 C135.155668,55.5819871 134.934794,55.8015214 134.714401,56.1039802 C134.631633,56.2142267 134.576295,56.3239939 134.493527,56.4064391 C134.38333,56.5986514 134.300563,56.7635418 134.217795,56.9562335 C134.217795,56.9835554 134.189885,57.0660006 134.162456,57.1757678 C134.079689,57.258213 134.05226,57.3133362 134.05226,57.3957814 C133.969492,57.643117 133.942063,57.8626513 133.942063,58.0826649 L133.942063,58.63198 L133.942063,60.6106648 L133.942063,61.1326579 C133.969492,61.49024 133.969492,61.681973 133.942063,61.681973 L133.942063,62.1220003 L133.942063,62.8088838 L133.942063,64.5675549 C133.942063,65.3646849 133.969492,65.9413219 133.996921,66.3535479 L133.996921,66.7657739 C133.969492,66.9857875 133.969492,67.2331231 133.996921,67.5351026 L133.942063,68.0024519 C133.942063,68.3322326 133.969492,68.497123 133.996921,68.497123 C133.996921,68.6893354 133.969492,68.9913149 133.942063,69.4040202 L133.942063,70.2557941 L133.942063,71.3275817 L133.942063,72.0964311 C133.942063,72.3715679 133.969492,72.5915816 133.996921,72.7837939 C133.996921,73.0311295 133.969492,73.2506638 133.942063,73.4433555 L133.942063,74.982013 L133.942063,75.5318074 L133.942063,75.9986773 L133.942063,76.8782525 L133.942063,77.0153416 C133.969492,77.1255881 133.996921,77.2080333 133.996921,77.2899991 C134.135027,77.7022251 134.273134,78.004684 134.38333,78.2520195 C134.410759,78.3617867 134.466098,78.4442319 134.493527,78.4720332 C134.520956,78.5544784 134.576295,78.6091223 134.603723,78.6369236 C134.797169,78.9389031 135.0729,79.2413619 135.45931,79.5433414 C135.900577,79.8731222 136.341844,80.0931358 136.811021,80.202903 C137.142092,80.3131495 137.473163,80.3677934 137.831662,80.3677934 C138.190162,80.3677934 138.548661,80.3131495 138.852303,80.202903 C139.431677,80.0653345 139.98314,79.763355 140.535085,79.2964851 C140.893584,78.8564579 141.114459,78.5266771 141.224655,78.3071428 C141.335333,78.1422524 141.472958,77.8397936 141.611065,77.4002456 C141.693832,77.0977868 141.721261,76.7958073 141.721261,76.5484717 L141.721261,75.6415745 C141.721261,75.3391157 141.74869,74.542465 141.665922,74.2400062 L141.665922,70.4753284 L141.665922,69.8435681 L141.665922,69.5689106 L141.665922,69.4586641 C141.693832,69.4586641 141.74869,69.4864654 141.7766,69.5137873 L141.831458,69.5689106 L142.300635,70.2006709 L142.797241,70.8602325 C142.990205,71.107568 143.128311,71.2997804 143.265937,71.4373488 C143.265937,71.4373488 143.404043,71.6295612 143.707204,72.0417872 L144.20381,72.6740268 L144.838522,73.4979994 C144.865951,73.5258007 144.92129,73.6082459 145.004057,73.6906911 L145.169593,73.8551022 C145.197022,73.8829034 145.500663,74.2951294 146.079556,75.0922594 C146.273001,75.3391157 146.576643,75.7240197 146.990481,76.2186909 C147.128107,76.4387045 147.37641,76.768006 147.734909,77.180232 C147.928354,77.4275676 148.231515,77.8124716 148.673263,78.3071428 L148.728121,78.3617867 C148.728121,78.3891087 148.810889,78.4993551 148.976424,78.6915675 L149.141959,78.8564579 C149.280066,79.1589167 149.390262,79.2964851 149.527888,79.3238071 C149.886868,79.6535879 150.328135,79.9009235 150.88008,80.0931358 C150.990277,80.1204578 151.23858,80.202903 151.624508,80.3131495 C152.093685,80.3131495 152.452185,80.2853482 152.700488,80.2580262 C153.058987,80.175581 153.445397,80.0653345 153.831806,79.9282454 L154.052199,79.8184783 C154.355841,79.5984646 154.466037,79.5711427 154.604144,79.4335743 C154.962643,79.1311154 155.155607,78.9115811 155.238375,78.801814 C155.542017,78.2793415 155.707552,77.9495607 155.734981,77.8397936 C155.79032,77.7022251 155.845178,77.4826908 155.927945,77.180232 C156.011194,76.768006 156.011194,76.2733348 155.983284,75.7513417 L155.983284,75.7513417 Z M123.376675,62.7537605 C123.293907,62.451781 123.18323,62.2044455 123.045604,62.0117538 C122.687105,61.7097743 122.383463,61.5722058 122.13516,61.5722058 L121.969625,61.5722058 C121.721322,61.5448839 121.362822,61.5175619 120.893645,61.5175619 L120.03854,61.5175619 C119.68004,61.49024 119.403827,61.4624387 119.238773,61.4624387 C119.156005,61.49024 119.128095,61.5448839 119.128095,61.5722058 L119.128095,61.7370962 L119.128095,63.0288974 L119.128095,63.8806713 L119.128095,64.4573084 C119.156005,64.5402329 119.183434,64.5675549 119.183434,64.5675549 L119.817666,64.5675549 L120.148736,64.5675549 L120.590485,64.5675549 L121.280055,64.5675549 L122.13516,64.5675549 C122.13516,64.5948768 122.190018,64.6226781 122.300695,64.6226781 L122.410892,64.5675549 C122.797301,64.3753425 123.073033,64.1280069 123.21114,63.8806713 C123.404104,63.5235686 123.459443,63.1386646 123.376675,62.7537605 L123.376675,62.7537605 Z M130.659267,75.7513417 C130.686696,75.943554 130.714606,76.1908896 130.714606,76.4933485 C130.714606,76.8231292 130.631838,77.2080333 130.493731,77.6749032 C130.410964,77.8949168 130.328196,78.0871292 130.218,78.2520195 C130.079893,78.5544784 129.941787,78.7740127 129.83159,78.9115811 C129.473091,79.2686839 129.197359,79.5160195 128.976485,79.6535879 L128.507308,79.9833687 C128.06604,80.175581 127.817738,80.2580262 127.790309,80.2580262 C127.431809,80.3404714 127.183506,80.3404714 126.990542,80.3131495 C126.769668,80.3131495 126.493936,80.2853482 126.190294,80.202903 C125.776456,80.0106906 125.362618,79.763355 124.893922,79.4335743 L124.673048,79.2413619 C124.424745,78.9940263 124.23178,78.7740127 124.121584,78.6369236 C124.066245,78.5266771 123.790513,78.0871292 123.321336,77.3451224 C123.18323,77.0977868 123.018176,76.8231292 122.852159,76.4933485 C122.82473,76.4660265 122.769873,76.35578 122.687105,76.2186909 C122.603856,76.0811225 122.548998,75.9713553 122.521088,75.943554 C122.49366,75.9162321 122.328124,75.6688965 122.079821,75.2566705 C121.942196,75.0093349 121.804089,74.7624787 121.666464,74.569787 C121.583215,74.4600198 121.500448,74.2951294 121.390251,74.0751158 C121.252626,73.8829034 121.141948,73.745335 121.114519,73.6355679 C120.893645,73.3335884 120.700681,72.9760063 120.535146,72.6189035 C120.314272,72.344246 120.176646,72.1242324 120.093397,71.9866639 C119.955772,71.6846844 119.845576,71.4919927 119.762808,71.3822256 C119.734898,71.2997804 119.68004,71.2173352 119.597273,71.0797668 C119.514505,70.9699996 119.487076,70.8875544 119.459166,70.8051092 C119.431737,70.7777873 119.376398,70.6680201 119.34897,70.5304517 C119.266202,70.4206845 119.238773,70.3382393 119.238773,70.310438 L119.128095,70.2006709 C119.100667,70.2284722 119.045328,70.2557941 119.017899,70.2557941 L119.017899,70.310438 C119.045328,70.6128969 119.072757,70.9699996 119.072757,71.4373488 L119.072757,72.8935611 C119.100667,73.1960199 119.128095,73.5531227 119.128095,74.0204719 C119.100667,74.0204719 119.072757,74.1029171 119.072757,74.2400062 L119.128095,74.4600198 L119.128095,76.1089238 C119.128095,76.4109033 119.100667,76.6304376 119.072757,76.768006 C119.072757,76.8782525 119.045328,76.9602183 119.017899,77.0153416 C119.017899,77.0431429 118.99047,77.0977868 118.96256,77.180232 C118.935131,77.3724443 118.880274,77.4826908 118.852364,77.565136 C118.714257,77.977362 118.549203,78.3344647 118.355758,78.6369236 C118.162794,78.9389031 117.804294,79.2686839 117.335117,79.6535879 C117.252349,79.7360331 117.114724,79.8184783 116.921279,79.9282454 C116.728314,80.0106906 116.617637,80.0653345 116.534869,80.0931358 C116.452583,80.0931358 116.341905,80.1204578 116.148941,80.202903 C116.010834,80.2307043 115.928067,80.2580262 115.845299,80.2580262 L115.293835,80.2580262 L114.548926,80.0931358 C114.355962,80.0106906 114.190427,79.9282454 113.997463,79.8184783 C113.886785,79.790677 113.583625,79.5984646 113.086537,79.2413619 C112.893573,79.0213483 112.755467,78.8291359 112.64527,78.6369236 C112.507645,78.4442319 112.396967,78.2793415 112.286771,78.1144511 C112.204003,77.8949168 112.148664,77.7300264 112.065897,77.6197799 C112.065897,77.5378141 112.038468,77.4275676 111.9557,77.2899991 C111.928271,77.180232 111.900842,77.0977868 111.900842,77.0153416 C111.900842,76.8782525 111.872932,76.7958073 111.845504,76.7133621 L111.845504,76.1089238 L111.845504,74.6800335 L111.845504,74.2400062 L111.845504,71.4919927 L111.845504,70.9699996 L111.845504,69.8435681 L111.845504,69.4040202 L111.845504,68.936671 L111.845504,68.497123 L111.845504,68.0575751 L111.845504,67.5351026 L111.845504,67.4253355 C111.872932,67.4253355 111.872932,67.287767 111.845504,67.0409108 L111.845504,66.6833287 L111.845504,66.1886575 L111.845504,65.501774 L111.845504,64.8422124 L111.845504,61.1326579 L111.845504,58.63198 C111.845504,58.2748773 111.872932,58.0002197 111.900842,57.8075281 C111.983129,57.3406582 112.093807,56.9284322 112.231913,56.5713294 C112.3142,56.461083 112.369538,56.3239939 112.452306,56.1591035 C112.535074,56.048857 112.67318,55.8566446 112.866144,55.5546651 C113.114447,55.2800076 113.417608,55.0599939 113.776589,54.8677816 C114.079749,54.6750899 114.493588,54.5653228 115.018104,54.4828776 C115.265925,54.4555556 115.596996,54.4277543 116.010834,54.4277543 L116.148941,54.4277543 L117.031475,54.4277543 L117.22492,54.4277543 C117.335117,54.4555556 117.417885,54.4828776 117.445313,54.4828776 C117.666188,54.4828776 117.831723,54.4555556 117.941919,54.4277543 L118.107455,54.4277543 C118.190222,54.4555556 118.245561,54.4828776 118.27299,54.4828776 C118.27299,54.4555556 118.493864,54.4277543 118.907702,54.4277543 L119.541934,54.4828776 C119.541934,54.4555556 119.624701,54.4277543 119.817666,54.4277543 L120.148736,54.4828776 L121.05918,54.4828776 L121.804089,54.4828776 L122.990266,54.4828776 C123.404104,54.4828776 123.679836,54.5101995 123.8728,54.5380008 C124.010906,54.620446 124.314548,54.647768 124.397316,54.647768 C124.424745,54.647768 124.507512,54.6750899 124.617709,54.7024119 C124.811154,54.7302132 124.921351,54.7848571 125.004118,54.8126584 C125.169654,54.8399803 125.417957,54.9502268 125.749027,55.0873159 C126.162865,55.2248843 126.466026,55.3619734 126.659471,55.4995419 C127.017971,55.6917542 127.321132,55.8566446 127.542006,56.048857 C127.73497,56.2415487 127.900505,56.3513158 128.011183,56.4064391 L128.397111,56.7908637 C128.590556,57.0381993 128.838378,57.3679801 129.14202,57.7528842 C129.224788,57.8353294 129.362894,58.055343 129.362894,58.1373089 C129.555858,58.3851238 129.693965,58.63198 129.804161,58.8793156 C129.941787,59.3188636 130.025036,59.5661992 130.052464,59.6486444 C130.19009,60.0608703 130.300767,60.3906511 130.328196,60.6106648 C130.356106,60.7204319 130.383535,60.8580003 130.383535,61.0228907 C130.466303,61.242425 130.493731,61.3799935 130.493731,61.4624387 C130.493731,61.5722058 130.52116,61.7097743 130.54907,61.8473427 C130.576499,62.0395551 130.603928,62.1771235 130.603928,62.2595687 L130.603928,62.5893495 C130.631838,62.7264386 130.659267,62.8362057 130.659267,62.9191303 L130.659267,63.7704249 C130.631838,63.8528701 130.603928,63.9631165 130.603928,64.1002056 C130.576499,64.2377741 130.54907,64.3475412 130.54907,64.4026645 L130.383535,65.3920068 C130.356106,65.474452 130.300767,65.5568972 130.272857,65.6944657 C130.19009,65.886678 130.135232,65.9964452 130.107803,66.0788904 C130.025036,66.3813492 129.969697,66.5735615 129.886929,66.6833287 L129.638626,67.2053218 L129.307555,67.699993 C129.307555,67.7277943 129.280127,67.7824382 129.197359,67.8375615 C129.114591,67.9200067 129.086681,67.9746506 129.086681,68.0024519 C128.949056,68.1946642 128.783521,68.3595546 128.617985,68.5517669 L128.121379,69.0191162 C127.762399,69.3210957 127.514577,69.5137873 127.37647,69.6235545 C127.349042,69.7333217 127.321132,69.8162462 127.321132,69.8435681 C127.349042,69.9260133 127.403899,69.9806572 127.431809,70.0084585 C127.514577,70.0909037 127.569916,70.2006709 127.624773,70.3655613 C127.817738,70.6128969 127.928415,70.8051092 128.011183,70.9153557 C128.093469,71.0524448 128.231576,71.2451365 128.45245,71.4919927 C128.617985,71.7944516 128.728182,72.0144652 128.810949,72.1515543 C128.838378,72.2339995 128.949056,72.3164447 129.086681,72.4540131 C129.197359,72.6462255 129.280127,72.7559926 129.307555,72.8384378 C129.611197,73.2784651 129.804161,73.6082459 129.941787,73.8551022 C130.079893,73.9926706 130.245429,74.2673281 130.383535,74.6800335 C130.466303,74.8444445 130.52116,75.0644582 130.603928,75.3117937 C130.603928,75.5318074 130.631838,75.6688965 130.659267,75.7513417 L130.659267,75.7513417 Z M67.7173474,71.3275817 C67.6345798,71.13489 67.5797221,70.9978009 67.4969545,70.9153557 C67.3035091,70.6680201 67.0831162,70.5031297 66.862242,70.4753284 L66.2001007,70.4753284 C65.9243689,70.4480065 65.5379594,70.4206845 65.0692635,70.4206845 C64.8758181,70.3928832 64.5726575,70.3655613 64.1588192,70.3655613 L63.2483749,70.3655613 L63.027982,70.3655613 C63.0000719,70.3928832 62.9452143,70.4206845 62.9177855,70.4206845 L62.9177855,70.5855749 L62.9177855,71.2451365 L62.9177855,71.9866639 L62.9177855,72.0417872 L62.9177855,72.6740268 L63.027982,72.7837939 L63.5794456,72.7837939 L64.0486227,72.7837939 C64.1313904,72.8111159 64.2415869,72.8384378 64.3796934,72.8384378 L64.710764,72.8384378 L65.17946,72.8384378 L65.3449953,72.8384378 L65.455673,72.8384378 L65.7314048,72.8384378 L66.4763137,72.8384378 C66.6692779,72.8662391 66.8348132,72.8384378 67.0277773,72.7286707 C67.3862768,72.4262119 67.5797221,72.1793556 67.6620086,71.9866639 C67.7452575,71.6846844 67.7452575,71.4646708 67.7173474,71.3275817 L67.7173474,71.3275817 Z M62.9177855,63.3308769 C62.9452143,63.4406441 62.9726431,63.5235686 62.9726431,63.5508906 L63.0828396,63.6606577 L63.4692491,63.6606577 L63.6347844,63.6606577 L64.1588192,63.6606577 L64.6000863,63.6606577 C64.9037282,63.6606577 65.1520311,63.6333358 65.2901376,63.5508906 C65.5105306,63.3586782 65.6486371,63.2489111 65.7314048,63.1937878 L65.8416013,63.1386646 C65.9517977,62.891329 66.0071366,62.6439934 66.0071366,62.4239798 C65.9797078,62.1771235 65.8690301,61.9844318 65.7314048,61.8473427 L65.6760659,61.7922195 C65.4277629,61.5722058 65.1246023,61.4624387 64.8209605,61.4624387 L64.2694969,61.4624387 C64.0486227,61.4351167 63.8830874,61.4073154 63.8003197,61.4073154 L63.5245879,61.4073154 L63.027982,61.4073154 L62.9726431,61.4624387 C62.9452143,61.5448839 62.9177855,61.5722058 62.9177855,61.5722058 L62.9177855,62.479103 L62.9177855,63.3308769 Z M75.5244552,71.547116 C75.5518841,71.7393283 75.5797941,71.93202 75.5797941,72.1515543 L75.5797941,72.8935611 C75.4970264,73.0311295 75.4691164,73.3609103 75.4691164,73.4979994 L75.4691164,73.745335 C75.3863487,73.9653486 75.3589199,74.130239 75.3589199,74.2400062 C75.3589199,74.3224514 75.3310099,74.4048966 75.2761523,74.5146637 C75.2487234,74.6522322 75.2208134,74.7346774 75.2208134,74.7624787 C75.138527,74.8995678 75.0278493,75.2293485 74.8348851,75.6966978 C74.5312433,76.2186909 74.2555115,76.6582388 73.9792985,77.0153416 C73.5380314,77.5378141 73.2069607,77.8949168 72.9586577,78.1144511 C72.4346229,78.4720332 72.0761235,78.7188894 71.8278205,78.8564579 C71.4139822,79.0764715 71.0554827,79.2413619 70.7244121,79.378451 C69.9795031,79.5984646 69.4554683,79.7360331 69.1797365,79.763355 C68.7379882,79.8458002 68.4069176,79.8731222 68.1590958,79.8731222 C67.5518121,79.8731222 67.0831162,79.8458002 66.7520455,79.8184783 L65.455673,79.8184783 C64.8483893,79.8184783 64.3796934,79.790677 64.0486227,79.763355 L61.3172899,79.763355 L60.7104874,79.763355 L58.7245448,79.763355 C58.5310994,79.763355 58.3660453,79.7360331 58.1726,79.6535879 C57.5932263,79.5160195 57.1245304,79.2686839 56.7381209,78.9667044 C56.4344791,78.7188894 56.2415149,78.5266771 56.1313184,78.4169099 C55.9932119,78.2246976 55.8555866,78.0598072 55.7174801,77.8949168 C55.6900513,77.7846703 55.6072837,77.6475812 55.496606,77.4553689 C55.3589807,77.15291 55.2487842,76.9602183 55.2208742,76.8231292 C55.2208742,76.740684 55.1934453,76.6304376 55.1106777,76.4387045 C55.0827677,76.2460129 55.0553388,76.1362457 55.0553388,76.0538005 C55.0553388,75.9713553 55.02791,75.8337869 55,75.6415745 L55,75.2566705 L55,75.2020266 L55,74.982013 C55.02791,74.8444445 55.0553388,74.7346774 55.0553388,74.7073554 L55.0553388,74.2400062 L55.0553388,73.6355679 L55.0553388,72.7837939 L55.0553388,71.7120064 L55.0553388,70.3655613 L55.0553388,68.8815477 L55.0553388,68.1673422 L55.0553388,67.0955547 C55.0827677,67.0955547 55.1106777,66.9579862 55.1106777,66.71113 L55.0553388,66.298904 L55.0553388,65.0071028 L55.0553388,63.6606577 L55.0553388,62.1493222 L55.0553388,61.9019866 C55.0827677,61.7648975 55.1106777,61.654651 55.1106777,61.5722058 L55.1106777,61.1326579 C55.0827677,60.9677675 55.0553388,60.8580003 55.0553388,60.7755552 L55.0553388,59.6486444 L55.0553388,59.044206 L55.0553388,58.1373089 C55.0553388,57.8899733 55.0827677,57.6977609 55.1106777,57.5879938 C55.1381065,57.5055486 55.1934453,57.3679801 55.2208742,57.1757678 C55.3036418,56.9562335 55.3589807,56.7908637 55.3864095,56.6810966 C55.6347125,56.2688706 55.7723378,56.021535 55.8555866,55.9390898 C56.0485508,55.6917542 56.3242826,55.3897747 56.7381209,55.0873159 C56.8483174,54.9775488 56.9589951,54.8951036 57.0966204,54.8677816 C57.3174945,54.7302132 57.5657975,54.620446 57.8141005,54.5380008 C57.8968682,54.5101995 57.9796358,54.4828776 58.1177423,54.4828776 C58.2279388,54.4004324 58.3107065,54.3726311 58.3934741,54.3726311 L58.7245448,54.3726311 C58.8621701,54.3453091 58.9728478,54.3179872 59.0556154,54.3179872 C59.3034372,54.3453091 59.6345078,54.3726311 60.0762562,54.3726311 C60.5728621,54.3726311 60.9587904,54.4004324 61.2070934,54.4277543 L61.8971447,54.4277543 L62.283073,54.4277543 L62.6141437,54.4277543 L63.2483749,54.4277543 C63.4413391,54.4555556 63.6347844,54.4828776 63.8277486,54.4828776 L65.17946,54.4828776 L65.5105306,54.4828776 C65.6486371,54.4828776 65.8416013,54.5101995 66.0624754,54.5380008 C66.2554396,54.5653228 66.4209749,54.5926447 66.5311714,54.5926447 C66.613939,54.5926447 66.6967067,54.620446 66.8073844,54.7024119 C66.9450097,54.7302132 67.0556874,54.7575351 67.0831162,54.7575351 C67.3862768,54.8399803 67.6345798,54.8951036 67.8280251,54.9775488 C68.0209893,55.0048707 68.2692923,55.1146379 68.5729341,55.2522063 C69.0142012,55.4444186 69.3173618,55.609309 69.5108072,55.7190762 C69.786539,55.8566446 69.9795031,55.9668911 70.0896996,56.048857 C70.3105738,56.1864254 70.5314479,56.3513158 70.7797509,56.5162062 C70.8625186,56.5986514 70.9727151,56.7084186 71.1656792,56.845987 L71.4967498,57.1757678 L72.0761235,57.9177746 C72.1035523,58.0002197 72.2416588,58.1651101 72.462533,58.4670896 C72.6554971,58.7422265 72.7936036,59.0168841 72.9038001,59.3188636 C72.9586577,59.5388772 73.0693354,59.841336 73.2069607,60.2257607 C73.2897284,60.4457744 73.3176384,60.6379867 73.3176384,60.7755552 C73.3176384,60.8028771 73.3450672,60.8853223 73.3729772,61.0228907 C73.4004061,61.1326579 73.4278349,61.2151031 73.4278349,61.242425 L73.4278349,61.681973 C73.4557449,61.9019866 73.4831737,62.066877 73.4831737,62.1493222 C73.4831737,62.5069043 73.4557449,62.7815618 73.4278349,62.9737742 C73.4278349,63.276233 73.3729772,63.6060138 73.2622996,63.9357946 C73.2348707,64.0177604 73.1795319,64.1553289 73.1521031,64.3753425 C73.0693354,64.5675549 73.0419066,64.7051233 73.0419066,64.7870892 C73.0139966,64.8700137 72.9865678,64.9246576 72.9586577,65.0071028 C72.9312289,65.1446712 72.8210324,65.3368836 72.6829259,65.5842192 C72.5448194,65.886678 72.4071941,66.0788904 72.2969976,66.1886575 L72.2416588,66.2437808 L72.2416588,66.298904 C72.2416588,66.4359931 72.2690876,66.5457603 72.3523365,66.5735615 C72.8210324,66.9306643 73.0419066,67.0955547 73.0419066,67.0955547 C73.3450672,67.3155683 73.5380314,67.4804587 73.648709,67.5902259 C73.7314767,67.6726711 73.7868156,67.7551163 73.869102,67.8375615 L74.145315,68.112219 C74.2829403,68.3044314 74.393618,68.4698011 74.5038145,68.6620134 C74.6967786,68.9639929 74.8623139,69.3210957 75.0552781,69.6786777 L75.3589199,70.4753284 C75.3589199,70.558253 75.3863487,70.6680201 75.4142588,70.8602325 C75.4970264,71.1626913 75.5244552,71.4095475 75.5244552,71.547116 L75.5244552,71.547116 Z M106.021932,65.2923057 C104.414219,64.3235746 101.999039,65.2937437 100.627117,67.4598474 C99.2556762,69.6254718 99.4467155,72.166893 101.054429,73.135624 C102.661662,74.1048344 105.076841,73.1346654 106.448763,70.9685616 C107.820686,68.8024579 107.629165,66.2615161 106.021932,65.2923057 L106.021932,65.2923057 Z M97.0844687,70.0051032 C96.6561941,69.0052155 96.2375438,68.0005345 95.8188934,67.0006468 C95.5085146,66.2691854 95.0537737,65.6043512 94.481137,65.0430528 C93.5562565,64.2066175 92.1954021,64.0191984 91.069377,64.5737862 C90.3538217,64.9375996 89.7032294,65.4135768 89.1445476,65.9820652 C87.5517514,67.4373188 85.819405,68.6576994 83.6491599,69.1696266 C81.4789148,69.6810744 80.314393,71.7091304 80.2807085,73.4975201 C80.2090086,75.0615822 81.0169558,76.538885 82.3883967,77.351833 C83.1790203,77.8805368 84.0793592,78.2333256 85.0254129,78.3847947 C87.7937987,78.8372846 90.5179134,79.5188954 93.167441,80.421958 L94.8564787,80.9525791 C95.337686,80.9760664 95.6793432,81.0038677 96.0306246,80.9995537 C96.3737254,80.9976363 96.7163451,80.972711 97.0555962,80.9242985 C98.8962143,80.7162681 100.323956,79.2581385 100.45292,77.4548895 C100.570816,76.2129389 100.22964,74.9709883 99.4905053,73.9533653 C98.5430081,72.7267534 97.7360234,71.4028369 97.0844687,70.0051032 L97.0844687,70.0051032 Z M97.317373,64.7990725 C99.1637656,65.6786477 101.669893,64.3748632 102.915258,61.886648 C104.161104,59.3984328 103.674122,56.668634 101.828211,55.7890587 C99.9822992,54.9094835 97.4761714,56.2137474 96.2308069,58.7014833 C94.9849611,61.1896985 95.4714617,63.9194973 97.317373,64.7990725 L97.317373,64.7990725 Z M89.4554076,63.0092448 C91.5043884,63.1487306 93.3262394,61.0228907 93.5244968,58.2609766 C93.722273,55.4985832 92.2213873,53.1460191 90.1719253,53.0065333 C88.1229445,52.8665682 86.3010935,54.9924081 86.1028361,57.7548015 C85.9050599,60.5167156 87.4059455,62.8692797 89.4554076,63.0092448 L89.4554076,63.0092448 Z M81.9572349,68.4132398 C80.0684961,68.4702804 78.4718502,66.4537284 78.3910073,63.9084726 C78.3106457,61.3636962 79.7764032,59.254633 81.665142,59.1980718 C83.5538808,59.1410312 85.1500456,61.1575832 85.2308884,63.7023596 C85.31125,66.2471361 83.8454925,68.3561993 81.9572349,68.4132398 L81.9572349,68.4132398 Z" id="Brand-Logo"></path>
        </g>
    </g>
</svg>