<?xml version="1.0" encoding="UTF-8"?>
<svg viewBox="0 0 44 31" version="1.1" xmlns="http://www.w3.org/2000/svg" xmlns:xlink="http://www.w3.org/1999/xlink">
    <!-- Generator: Sketch 57.1 (83088) - https://sketch.com -->
    <title>Pay Pal</title>
    <desc>Created with Sketch.</desc>
    <g id="Desktop" stroke="none" stroke-width="1" fill="none" fill-rule="evenodd">
        <g id="Home" transform="translate(-391.000000, -3389.000000)">
            <g id="Pay-Pal" transform="translate(391.000000, 3389.000000)">
                <path d="M0.33,1.98029314 L0.33,28.3797069 C0.33,29.2874664 1.07280866,30.03 1.98487411,30.03 L41.5751259,30.03 C42.4884982,30.03 43.23,29.2905204 43.23,28.3797069 L43.23,1.98029314 C43.23,1.07253356 42.4871913,0.33 41.5751259,0.33 L1.98487411,0.33 C1.07150183,0.33 0.33,1.06947958 0.33,1.98029314 Z" id="Rectangle-Copy-4" stroke="#E6E7E8" stroke-width="0.66" fill="#FFFFFF"></path>
                <path d="M18.7716731,7.92 L23.2755705,7.92 C24.5440662,7.92 26.0485395,7.9612264 27.0550444,8.84881342 C27.7273251,9.44177682 28.0801302,10.3865001 27.9986064,11.4006696 C27.7224476,14.8397645 25.6653082,16.7660246 22.9067393,16.7660246 L20.6853911,16.7660246 C20.3073856,16.7660246 20.0567756,17.0165185 19.9501676,17.6950702 L19.3302618,21.6381724 C19.2900806,21.8940083 19.1791758,22.044746 18.97676,22.0629785 L16.2022812,22.0629785 C15.8944187,22.0629785 15.7850235,21.8274654 15.8655021,21.3174193 L17.8634148,8.66823016 C17.9434289,8.16131962 18.220749,7.92 18.7716731,7.92" id="Fill-1" fill="#1B3D92"></path>
                <path d="M21.6682229,11.88 L26.1675912,11.88 C28.5831099,11.88 29.4926457,13.1027402 29.3522436,14.9021856 C29.120679,17.8685123 27.3271563,19.5087425 24.9483348,19.5087425 L23.7471949,19.5087425 C23.421216,19.5087425 23.2018451,19.7242811 23.1130051,20.3100444 L22.5978493,23.7105838 C22.5644036,23.9314644 22.4482729,24.0611824 22.2737285,24.0769762 L19.452449,24.0769762 C19.1869742,24.0769762 19.0925599,23.8738636 19.1620061,23.4339605 L20.8849213,12.5253384 C20.953903,12.0881062 21.1930161,11.88 21.6682229,11.88" id="Fill-1" fill="#00A2D3"></path>
                <path d="M19.8,17.5034322 L20.5864372,12.5252571 C20.6555349,12.0881411 20.8947642,11.8800348 21.3699711,11.8800348 L25.8693393,11.8800348 C26.6142017,11.8800348 27.2158749,11.9962817 27.6874817,12.2104267 C27.2353848,15.2712838 25.2557046,16.9719019 22.6634349,16.9719019 L20.4419706,16.9719019 C20.1496696,16.9719019 19.9312277,17.1213622 19.8,17.5034322" id="Page-1" fill="#1B2E7F"></path>
            </g>
        </g>
    </g>
</svg>