<?xml version="1.0" encoding="UTF-8"?>
<svg viewBox="0 0 44 31" version="1.1" xmlns="http://www.w3.org/2000/svg" xmlns:xlink="http://www.w3.org/1999/xlink">
    <!-- Generator: Sketch 57.1 (83088) - https://sketch.com -->
    <title>Visa</title>
    <desc>Created with Sketch.</desc>
    <g id="Desktop" stroke="none" stroke-width="1" fill="none" fill-rule="evenodd">
        <g id="Home" transform="translate(-491.000000, -3389.000000)">
            <g id="Visa" transform="translate(491.000000, 3389.000000)">
                <path d="M0.33,1.98029314 L0.33,28.3797069 C0.33,29.2874664 1.07280866,30.03 1.98487411,30.03 L41.5751259,30.03 C42.4884982,30.03 43.23,29.2905204 43.23,28.3797069 L43.23,1.98029314 C43.23,1.07253356 42.4871913,0.33 41.5751259,0.33 L1.98487411,0.33 C1.07150183,0.33 0.33,1.06947958 0.33,1.98029314 Z" id="Rectangle-Copy-4" stroke="#E6E7E8" stroke-width="0.66" fill="#FFFFFF"></path>
                <g id="Visa_Inc._logo" transform="translate(7.260000, 10.560000)" fill="#0742A6">
                    <polygon id="polygon9" points="12.554747 9.07103461 10.2185487 9.07103461 11.6797745 0.271838488 14.0158451 0.271838488"></polygon>
                    <path d="M21.0236737,0.486953726 C20.5628727,0.308914452 19.8320043,0.112337195 18.9282876,0.112337195 C16.6212166,0.112337195 14.9965962,1.31046313 14.9866315,3.02342241 C14.9674687,4.28723999 16.1498123,4.98919497 17.0341107,5.41059191 C17.9379551,5.84119564 18.2451984,6.12225135 18.2451984,6.50607466 C18.2360002,7.0955576 17.5148409,7.36728211 16.8422274,7.36728211 C15.909511,7.36728211 15.4097457,7.22718971 14.6502609,6.89922917 L14.3426344,6.75863911 L14.0157174,8.73386729 C14.5636451,8.97697612 15.5731403,9.19271344 16.6212166,9.20216905 C19.0725194,9.20216905 20.6683957,8.0225811 20.687303,6.19714977 C20.6966289,5.19547668 20.0723055,4.42795446 18.7263119,3.80077348 C17.909211,3.39816336 17.4088069,3.12668768 17.4088069,2.71474635 C17.4183883,2.34025424 17.8320488,1.95667976 18.7544173,1.95667976 C19.5139021,1.93789294 20.0719223,2.11568338 20.4946532,2.29359824 L20.7059548,2.38703465 L21.0236737,0.486953726 L21.0236737,0.486953726 L21.0236737,0.486953726 Z" id="path11"></path>
                    <path d="M24.1286828,5.9537921 C24.3210771,5.44828996 25.0613991,3.49184859 25.0613991,3.49184859 C25.05169,3.51063541 25.2534102,2.97701525 25.3687701,2.64942796 L25.532037,3.40761897 C25.532037,3.40761897 25.9744417,5.51385718 26.0705111,5.9537921 C25.7053963,5.9537921 24.5901225,5.9537921 24.1286828,5.9537921 L24.1286828,5.9537921 Z M27.0124256,0.271838488 L25.2053755,0.271838488 C24.6481218,0.271838488 24.2247522,0.430842117 23.9843232,1.00191149 L20.5141992,9.07091019 L22.965502,9.07091019 C22.965502,9.07091019 23.3690702,7.98488306 23.4558137,7.75098101 C23.7247314,7.75098101 26.1093477,7.75098101 26.4552997,7.75098101 C26.5223695,8.0599059 26.7340543,9.07091019 26.7340543,9.07091019 L28.8971489,9.07091019 L27.0124256,0.271838488 L27.0124256,0.271838488 L27.0124256,0.271838488 Z" id="path13" fill-rule="nonzero"></path>
                    <path d="M8.26726666,0.271838488 L5.97935851,6.27204819 L5.72934811,5.05513545 C5.30636168,3.65097664 3.97978631,2.12538783 2.4993977,1.36682357 L4.59503929,9.06170341 L7.06550487,9.06170341 L10.7376045,0.271838488 L8.26726666,0.271838488 L8.26726666,0.271838488 L8.26726666,0.271838488 Z" id="path15"></path>
                    <path d="M3.85484499,0.271838488 L0.0961296041,0.271838488 L0.0576762926,0.449628931 C2.98970935,1.17982635 4.93153771,2.93993929 5.72934811,5.05550869 L4.91224718,1.01149152 C4.77772446,0.449504515 4.36431943,0.29037647 3.85484499,0.271838488 L3.85484499,0.271838488 Z" id="path17"></path>
                </g>
            </g>
        </g>
    </g>
</svg>