<?xml version="1.0" encoding="UTF-8"?>
<svg viewBox="0 0 44 31" version="1.1" xmlns="http://www.w3.org/2000/svg" xmlns:xlink="http://www.w3.org/1999/xlink">
    <!-- Generator: Sketch 57.1 (83088) - https://sketch.com -->
    <title>Maestro</title>
    <desc>Created with Sketch.</desc>
    <g id="Desktop" stroke="none" stroke-width="1" fill="none" fill-rule="evenodd">
        <g id="Home" transform="translate(-591.000000, -3389.000000)">
            <g id="Maestro" transform="translate(591.000000, 3389.000000)">
                <path d="M0.33,1.98029314 L0.33,28.3797069 C0.33,29.2874664 1.07280866,30.03 1.98487411,30.03 L41.5751259,30.03 C42.4884982,30.03 43.23,29.2905204 43.23,28.3797069 L43.23,1.98029314 C43.23,1.07253356 42.4871913,0.33 41.5751259,0.33 L1.98487411,0.33 C1.07150183,0.33 0.33,1.06947958 0.33,1.98029314 Z" id="Rectangle-Copy-11" stroke="#E6E7E8" stroke-width="0.66" fill="#FFFFFF"></path>
                <g id="_Group_" transform="translate(10.560000, 7.920000)">
                    <rect id="Rectangle" fill="#7673C0" x="8.2647661" y="1.66763014" width="5.99033898" height="10.8760993"></rect>
                    <path d="M8.64700678,7.10471918 C8.6453518,4.98271775 9.60957034,2.97779159 11.2618373,1.66763014 C8.45489572,-0.560990052 4.42401506,-0.236372249 2.0019899,2.41335088 C-0.420035253,5.063074 -0.420035253,9.14828559 2.0019899,11.7980087 C4.42401506,14.4477318 8.45489572,14.7723496 11.2618373,12.5437295 C9.60904453,11.2331519 8.64476709,9.22739481 8.64700678,7.10471918 L8.64700678,7.10471918 Z" id="_Path_" fill="#EB001B"></path>
                    <path d="M21.6850271,11.6544917 L21.6850271,11.2132985 L21.7744068,11.2132985 L21.7744068,11.1220171 L21.5481051,11.1220171 L21.5481051,11.2132985 L21.6374847,11.2132985 L21.6374847,11.6544917 L21.6850271,11.6544917 Z M22.1243186,11.6544917 L22.1243186,11.1220171 L22.0558576,11.1220171 L21.9759864,11.5023561 L21.8961153,11.1220171 L21.8257525,11.1220171 L21.8257525,11.6544917 L21.8751966,11.6544917 L21.8751966,11.2551358 L21.9493627,11.6012442 L22.0007085,11.6012442 L22.0748746,11.2551358 L22.0748746,11.6582951 L22.1243186,11.6544917 Z" id="Shape" fill="#00A1DF" fill-rule="nonzero"></path>
                    <path d="M22.3373087,7.10471918 C22.3373087,9.75282753 20.8405644,12.1684455 18.4829067,13.3256508 C16.1252489,14.4828562 13.3205342,14.1784863 11.2599356,12.5418082 C12.9114816,11.2305345 13.8757727,9.22587488 13.8757727,7.10375856 C13.8757727,4.98164225 12.9114816,2.97698265 11.2599356,1.6657089 C13.3208039,0.0288164614 16.1259548,-0.275401762 18.4837621,0.882285923 C20.8415694,2.03997361 22.3379756,4.45626421 22.3373087,7.10471918 Z" id="Path" fill="#00A1DF"></path>
                </g>
            </g>
        </g>
    </g>
</svg>