<?xml version="1.0" encoding="UTF-8"?>
<svg viewBox="0 0 44 31" version="1.1" xmlns="http://www.w3.org/2000/svg" xmlns:xlink="http://www.w3.org/1999/xlink">
    <!-- Generator: Sketch 57.1 (83088) - https://sketch.com -->
    <title>Google Pay</title>
    <desc>Created with Sketch.</desc>
    <g id="Desktop" stroke="none" stroke-width="1" fill="none" fill-rule="evenodd">
        <g id="Home" transform="translate(-742.000000, -3389.000000)">
            <g id="Google-Pay" transform="translate(742.000000, 3389.000000)">
                <path d="M0.33,1.98029314 L0.33,28.3797069 C0.33,29.2874664 1.07280866,30.03 1.98487411,30.03 L41.5751259,30.03 C42.4884982,30.03 43.23,29.2905204 43.23,28.3797069 L43.23,1.98029314 C43.23,1.07253356 42.4871913,0.33 41.5751259,0.33 L1.98487411,0.33 C1.07150183,0.33 0.33,1.06947958 0.33,1.98029314 Z" id="Rectangle-Copy-20" stroke="#E6E7E8" stroke-width="0.66" fill="#FFFFFF"></path>
                <g id="Google_Pay_(GPay)_Logo-Copy" transform="translate(7.260000, 9.900000)">
                    <path d="M13.484345,5.4223488 L13.484345,8.6378688 L12.4314936,8.6378688 L12.4314936,0.69696 L15.2238385,0.69696 C15.8970575,0.683334743 16.5480035,0.930822393 17.0319963,1.384416 C17.5216857,1.81118254 17.7970711,2.42220709 17.7873028,3.060288 C17.8013282,3.70193284 17.5254521,4.31751743 17.0319963,4.745664 C16.5437174,5.1967872 15.9409982,5.4221376 15.2238385,5.4217152 L13.484345,5.4217152 L13.484345,5.4223488 Z M13.484345,1.6746048 L13.484345,4.4466048 L15.2499963,4.4466048 C15.6413948,4.45784552 16.0195698,4.30879759 16.2917306,4.036032 C16.5622402,3.78121825 16.7148588,3.43121864 16.7148588,3.0656736 C16.7148588,2.70012856 16.5622402,2.35012895 16.2917306,2.0953152 C16.0228706,1.81668743 15.643522,1.6632546 15.2499963,1.6739712 L13.484345,1.6739712 L13.484345,1.6746048 Z" id="Shape" fill="#5F6368" fill-rule="nonzero"></path>
                    <path d="M20.2134385,3.0273408 C20.991633,3.0273408 21.6059053,3.2288256 22.0562554,3.6317952 C22.5066055,4.0347648 22.7315626,4.587264 22.7311272,5.2892928 L22.7311272,8.6378688 L21.7240514,8.6378688 L21.7240514,7.8838848 L21.6782752,7.8838848 C21.2423119,8.5048128 20.6624807,8.8152768 19.9387817,8.8152768 C19.3210217,8.8152768 18.8041872,8.6378688 18.3882782,8.2830528 C17.9840524,7.95324584 17.7548584,7.4644269 17.7644147,6.9524928 C17.7644147,6.3902784 17.9837042,5.943168 18.4222833,5.6111616 C18.8608624,5.2791552 19.4463611,5.1127296 20.1787794,5.1118848 C20.8039508,5.1118848 21.3188235,5.2227648 21.7233974,5.4445248 L21.7233974,5.21136 C21.7258117,4.86238098 21.5661288,4.53084895 21.288524,4.30848 C21.0101045,4.06510033 20.6472561,3.93230391 20.2722936,3.9365568 C19.6841791,3.9365568 19.2187883,4.1769024 18.8761211,4.6575936 L17.9488272,4.0917888 C18.4589042,3.3821568 19.2137747,3.0273408 20.2134385,3.0273408 Z M18.8512595,6.9746688 C18.8498389,7.23808252 18.9799276,7.48591679 19.2004778,7.6399488 C19.4333332,7.81741697 19.7223519,7.91143085 20.0185629,7.9060608 C20.46285,7.90534144 20.8887238,7.73400323 21.2028572,7.4295936 C21.5516279,7.1115264 21.7260132,6.738336 21.7260132,6.3100224 C21.3977328,6.0565824 20.9399714,5.9298624 20.3527288,5.9298624 C19.9250488,5.9298624 19.5684308,6.02976 19.2828749,6.2295552 C18.9944851,6.4323072 18.8512595,6.6787776 18.8512595,6.9746688 L18.8512595,6.9746688 Z" id="Shape" fill="#5F6368" fill-rule="nonzero"></path>
                    <polygon id="Path" fill="#5F6368" points="28.512 3.2047488 24.9963919 11.0328768 23.9095354 11.0328768 25.2141556 8.293824 22.9024602 3.2047488 24.0468639 3.2047488 25.7176932 7.1077248 25.7405813 7.1077248 27.3656345 3.2047488"></polygon>
                    <path d="M9.22978338,4.7291904 C9.2301761,4.41831581 9.20304691,4.10798124 9.14868991,3.8016 L4.70840367,3.8016 L4.70840367,5.5585728 L7.2515956,5.5585728 C7.14643542,6.12561444 6.80673196,6.6264122 6.31122275,6.9448896 L6.31122275,8.0853696 L7.82902899,8.0853696 C8.71774018,7.2914688 9.22978338,6.117408 9.22978338,4.7291904 Z" id="Path" fill="#4285F4"></path>
                    <path d="M4.70840367,9.1872 C5.97901872,9.1872 7.04887266,8.7829632 7.82902899,8.0860032 L6.31122275,6.9455232 C5.88877431,7.22304 5.34469211,7.38144 4.70840367,7.38144 C3.48029505,7.38144 2.43790679,6.5793024 2.06515817,5.4983808 L0.50157578,5.4983808 L0.50157578,6.6737088 C1.30079715,8.21459677 2.92851073,9.1871214 4.70840367,9.1872 Z" id="Path" fill="#34A853"></path>
                    <path d="M2.06515817,5.4983808 C1.86809934,4.93197053 1.86809934,4.31858947 2.06515817,3.7521792 L2.06515817,2.5768512 L0.50157578,2.5768512 C-0.16690581,3.86567464 -0.16690581,5.38488536 0.50157578,6.6737088 L2.06515817,5.4983808 Z" id="Path" fill="#FBBC04"></path>
                    <path d="M4.70840367,1.86912 C5.37986619,1.85849137 6.02867723,2.10429726 6.51459963,2.553408 L6.51459963,2.553408 L7.85845651,1.25136 C7.00631133,0.475881635 5.87740821,0.0501310273 4.70840367,0.06336 C2.92851073,0.0634385966 1.30079715,1.03596323 0.50157578,2.5768512 L2.06515817,3.7521792 C2.43790679,2.6712576 3.48029505,1.86912 4.70840367,1.86912 Z" id="Path" fill="#EA4335"></path>
                </g>
            </g>
        </g>
    </g>
</svg>