<?xml version="1.0" encoding="UTF-8"?>
<svg viewBox="0 0 44 31" version="1.1" xmlns="http://www.w3.org/2000/svg" xmlns:xlink="http://www.w3.org/1999/xlink">
    <!-- Generator: Sketch 57.1 (83088) - https://sketch.com -->
    <title>Mastercard</title>
    <desc>Created with Sketch.</desc>
    <g id="Desktop" stroke="none" stroke-width="1" fill="none" fill-rule="evenodd">
        <g id="Home" transform="translate(-442.000000, -3389.000000)">
            <g id="Mastercard" transform="translate(442.000000, 3389.000000)">
                <path d="M0.33,1.98029314 L0.33,28.3797069 C0.33,29.2874664 1.07280866,30.03 1.98487411,30.03 L41.5751259,30.03 C42.4884982,30.03 43.23,29.2905204 43.23,28.3797069 L43.23,1.98029314 C43.23,1.07253356 42.4871913,0.33 41.5751259,0.33 L1.98487411,0.33 C1.07150183,0.33 0.33,1.06947958 0.33,1.98029314 Z" id="Rectangle-Copy-4" stroke="#E6E7E8" stroke-width="0.66" fill="#FFFFFF"></path>
                <g id="mc_symbol" transform="translate(8.580000, 6.600000)">
                    <g id="Group" opacity="0" fill="#FFFFFF">
                        <rect id="Rectangle" x="0" y="0" width="26.278" height="17.1402759"></rect>
                    </g>
                    <rect id="Rectangle" fill="#FF5F00" x="9.674" y="2.98623448" width="6.932" height="11.1658345"></rect>
                    <path d="M10.388,8.57013793 C10.3862595,6.39160719 11.4003217,4.33327056 13.138,2.9882069 C10.1859581,0.70021711 5.94670746,1.03348261 3.39947958,3.75379336 C0.852251694,6.4741041 0.852251694,10.6681442 3.39947958,13.3884549 C5.94670746,16.1087657 10.1859581,16.4420312 13.138,14.1540414 C11.3997688,12.8085506 10.3856445,10.7493608 10.388,8.57013793 Z" id="Path" fill="#EB001B"></path>
                    <path d="M24.1138,13.2544552 L24.1138,12.7904552 L24.2238,12.7904552 L24.2238,12.6944552 L23.962,12.6944552 L23.962,12.7904552 L24.0654,12.7904552 L24.0654,13.2544552 L24.1138,13.2544552 Z M24.622,13.2544552 L24.622,12.6944552 L24.5428,12.6944552 L24.4504,13.0944552 L24.358,12.6944552 L24.2788,12.6944552 L24.2788,13.2544552 L24.336,13.2544552 L24.336,12.8304552 L24.4218,13.1944552 L24.4812,13.1944552 L24.567,12.8304552 L24.567,13.2544552 L24.622,13.2544552 Z" id="Shape" fill="#F79E1B" fill-rule="nonzero"></path>
                    <path d="M24.788,8.57013793 C24.788,11.2887909 23.2138842,13.76876 20.7343511,14.9567929 C18.2548179,16.1448257 15.305118,15.8323475 13.138,14.152069 C14.8749201,12.8058634 15.8890587,10.7478004 15.8890587,8.56915172 C15.8890587,6.39050303 14.8749201,4.33244007 13.138,2.98623448 C15.305118,1.30595592 18.2548179,0.993477722 20.7343511,2.18151059 C23.2138842,3.36954345 24.788,5.84951256 24.788,8.56816552 L24.788,8.57013793 Z" id="Path" fill="#F79E1B"></path>
                </g>
            </g>
        </g>
    </g>
</svg>