<?xml version="1.0" encoding="UTF-8"?>
<svg viewBox="0 0 44 31" version="1.1" xmlns="http://www.w3.org/2000/svg" xmlns:xlink="http://www.w3.org/1999/xlink">
    <!-- Generator: Sketch 57.1 (83088) - https://sketch.com -->
    <title>Apple Pay</title>
    <desc>Created with Sketch.</desc>
    <g id="Desktop" stroke="none" stroke-width="1" fill="none" fill-rule="evenodd">
        <g id="Home" transform="translate(-692.000000, -3389.000000)">
            <g id="Apple-Pay" transform="translate(692.000000, 3389.000000)">
                <path d="M0.33,1.98029314 L0.33,28.3797069 C0.33,29.2874664 1.07280866,30.03 1.98487411,30.03 L41.5751259,30.03 C42.4884982,30.03 43.23,29.2905204 43.23,28.3797069 L43.23,1.98029314 C43.23,1.07253356 42.4871913,0.33 41.5751259,0.33 L1.98487411,0.33 C1.07150183,0.33 0.33,1.06947958 0.33,1.98029314 Z" id="Rectangle-Copy-21" stroke="#E6E7E8" stroke-width="0.66" fill="#FFFFFF"></path>
                <g id="Apple_Pay_logo-Copy" transform="translate(8.580000, 9.900000)" fill="#000000" fill-rule="nonzero">
                    <path d="M4.7779875,1.39866825 C4.47170625,1.765109 3.98165625,2.0541327 3.49160625,2.0128436 C3.43035,1.51737441 3.67027031,0.990938389 3.95102813,0.66578673 C4.25730938,0.289023697 4.79330156,0.0206445498 5.2272,0 C5.27824688,0.516113744 5.07916406,1.02190521 4.7779875,1.39866825 L4.7779875,1.39866825 Z M5.22209531,2.11090521 C4.51254375,2.06961611 3.90508594,2.51863507 3.56817656,2.51863507 C3.2261625,2.51863507 2.71058906,2.13154976 2.14907344,2.14187204 C1.41910312,2.15219431 0.740179687,2.57024645 0.3675375,3.23603318 C-0.398165625,4.56760664 0.168454688,6.53916114 0.908634375,7.623 C1.27106719,8.15975829 1.70496562,8.74812796 2.27669062,8.72748341 C2.8177875,8.70683886 3.03218437,8.37136493 3.68558437,8.37136493 C4.34408906,8.37136493 4.5329625,8.72748341 5.1046875,8.71716114 C5.69683125,8.70683886 6.06947344,8.18040284 6.43190625,7.64364455 C6.84538594,7.03463033 7.01384062,6.44109953 7.02405,6.4101327 C7.01384063,6.39981043 5.8806,5.96111374 5.87039062,4.63986256 C5.86018125,3.53537915 6.76371094,3.00894313 6.80454844,2.9779763 C6.29407969,2.21412796 5.49774844,2.13154976 5.22209531,2.11090521 L5.22209531,2.11090521 Z M9.32115938,0.614175355 L9.32115938,8.66038863 L10.5564937,8.66038863 L10.5564937,5.90950237 L12.2665641,5.90950237 C13.8285984,5.90950237 14.9261062,4.82566351 14.9261062,3.25667773 C14.9261062,1.68769194 13.8490172,0.614175355 12.3074016,0.614175355 L9.32115938,0.614175355 Z M10.5564937,1.66704739 L11.9807016,1.66704739 C13.0526859,1.66704739 13.6652484,2.24509479 13.6652484,3.26183886 C13.6652484,4.27858294 13.0526859,4.86179147 11.9755969,4.86179147 L10.5564937,4.86179147 L10.5564937,1.66704739 L10.5564937,1.66704739 Z M17.1823781,8.72232227 C17.9582906,8.72232227 18.6780516,8.32491469 19.0047516,7.69525592 L19.030275,7.69525592 L19.030275,8.66038863 L20.173725,8.66038863 L20.173725,4.65534597 C20.173725,3.49409005 19.2548812,2.74572512 17.8408828,2.74572512 C16.5289781,2.74572512 15.5590875,3.50441232 15.5233547,4.54696209 L16.6361766,4.54696209 C16.7280609,4.05149289 17.1823781,3.72634123 17.80515,3.72634123 C18.5606437,3.72634123 18.9843328,4.08245972 18.9843328,4.73792417 L18.9843328,5.18178199 L17.4427172,5.27468246 C16.0083,5.3624218 15.2323875,5.95595261 15.2323875,6.98818009 C15.2323875,8.03072986 16.0338234,8.72232227 17.1823781,8.72232227 Z M17.5141828,7.76751185 C16.8556781,7.76751185 16.4370937,7.44752133 16.4370937,6.95721327 C16.4370937,6.4514218 16.8403641,6.15723697 17.6111719,6.11078673 L18.9843328,6.02304739 L18.9843328,6.47722749 C18.9843328,7.23075355 18.3513516,7.76751185 17.5141828,7.76751185 Z M21.7000266,10.8487109 C22.9047328,10.8487109 23.4713531,10.3842085 23.9665078,8.97521801 L26.136,2.82314218 L24.8802469,2.82314218 L23.4254109,7.57654976 L23.3998875,7.57654976 L21.9450516,2.82314218 L20.6535656,2.82314218 L22.7464875,8.68103318 L22.6341844,9.03715166 C22.4453109,9.64100474 22.1390297,9.87325592 21.5928281,9.87325592 C21.4958391,9.87325592 21.3069656,9.86293365 21.2303953,9.85261137 L21.2303953,10.8177441 C21.3018609,10.8383886 21.6081422,10.8487109 21.7000266,10.8487109 Z" id="XMLID_34_"></path>
                </g>
            </g>
        </g>
    </g>
</svg>