<?xml version="1.0" encoding="UTF-8"?>
<svg viewBox="0 0 44 31" version="1.1" xmlns="http://www.w3.org/2000/svg" xmlns:xlink="http://www.w3.org/1999/xlink">
    <!-- Generator: Sketch 57.1 (83088) - https://sketch.com -->
    <title>Klarna</title>
    <desc>Created with Sketch.</desc>
    <g id="Desktop" stroke="none" stroke-width="1" fill="none" fill-rule="evenodd">
        <g id="Home" transform="translate(-642.000000, -3389.000000)">
            <g id="Klarna" transform="translate(642.000000, 3389.000000)">
                <path d="M0.33,1.98029314 L0.33,28.3797069 C0.33,29.2874664 1.07280866,30.03 1.98487411,30.03 L41.5751259,30.03 C42.4884982,30.03 43.23,29.2905204 43.23,28.3797069 L43.23,1.98029314 C43.23,1.07253356 42.4871913,0.33 41.5751259,0.33 L1.98487411,0.33 C1.07150183,0.33 0.33,1.06947958 0.33,1.98029314 Z" id="Rectangle-Copy-4" stroke="#E6E7E8" stroke-width="0.66" fill="#FFFFFF"></path>
                <path d="M13.0611602,18.3533543 L14.5295716,18.3533543 L14.5295716,11.2200216 L13.0611602,11.2200216 L13.0611602,18.3533543 L13.0611602,18.3533543 Z M22.3612518,14.2354586 L22.3612518,13.6020358 L22.3367842,13.6020358 L22.3367842,13.6020358 L21.0518799,13.6020358 L21.0518799,13.6020358 L20.9784979,13.6020358 L20.9784979,18.3659779 L22.3612518,18.3659779 L22.3612518,15.8699415 C22.3612518,15.1477221 23.1444657,14.8310107 23.695133,14.9830762 L23.7073251,14.9830762 L23.7073251,13.6020358 C23.1444657,13.5892827 22.6304998,13.8427468 22.3612518,14.2354586 L22.3612518,14.2354586 Z M17.6377927,17.2509819 C16.9157896,17.2509819 16.3406547,16.6808712 16.3406547,15.9712969 C16.3406547,15.2618306 16.9280025,14.6916119 17.6377927,14.6916119 C18.359775,14.6916119 18.9348891,15.2618306 18.9348891,15.9712969 C18.9348891,16.6808712 18.3474995,17.2509819 17.6377927,17.2509819 L17.6377927,17.2509819 Z M18.9226553,13.9187688 C18.5310692,13.6273692 18.0415918,13.462637 17.5153921,13.462637 C16.1693605,13.462637 15.0924935,14.5903212 15.0924935,15.9713617 C15.0924935,17.3523589 16.1815735,18.48 17.5153921,18.48 C18.0415918,18.48 18.5188145,18.3026226 18.9226553,18.0238682 L18.9226553,18.3533543 L20.121902,18.3533543 L20.121902,13.589369 L18.9226553,13.589369 L18.9226553,13.9187688 Z M27.1581763,13.462637 C26.6074673,13.462637 26.0812676,13.6399928 25.7386585,14.1215228 L25.7386585,13.5892827 L25.7142117,13.5892827 L25.7142117,13.5892827 L24.4293074,13.5892827 L24.4293074,13.5892827 L24.3559046,13.5892827 L24.3559046,18.3533327 L25.7386793,18.3533327 L25.7386793,15.7432095 C25.7386793,15.0210548 26.2037099,14.6662785 26.7788657,14.6662785 C27.3784682,14.6662785 27.7333321,15.046453 27.7333321,15.7305643 L27.7333321,18.3405365 L29.1161693,18.3405365 L29.1161693,15.3124543 C29.1161693,14.2228566 28.2594484,13.462637 27.1581763,13.462637 L27.1581763,13.462637 Z M36.0911911,16.6681829 C35.6139267,16.6681829 35.2223614,17.0736045 35.2223614,17.5677365 C35.2223614,18.0618684 35.6139267,18.4673117 36.0911911,18.4673117 C36.5683931,18.4673117 36.96,18.0618684 36.96,17.5677365 C36.9599792,17.0609162 36.5683931,16.6681829 36.0911911,16.6681829 L36.0911911,16.6681829 Z M32.1386287,17.2509819 C31.4166256,17.2509819 30.8415115,16.6808712 30.8415115,15.9712969 C30.8415115,15.2618306 31.4288386,14.6916119 32.1386287,14.6916119 C32.8606111,14.6916119 33.4357668,15.2618306 33.4357668,15.9712969 C33.4480006,16.6808712 32.8605485,17.2509819 32.1386287,17.2509819 L32.1386287,17.2509819 Z M33.4357877,13.9187688 C33.0441807,13.6273692 32.5547241,13.462637 32.0285661,13.462637 C30.6823886,13.462637 29.6055633,14.5903212 29.6055633,15.9713617 C29.6055633,17.3523589 30.6946433,18.48 32.0285661,18.48 C32.5547033,18.48 33.0319261,18.3026226 33.4357877,18.0238682 L33.4357877,18.3533543 L34.634951,18.3533543 L34.634951,13.589369 L33.4357877,13.589369 L33.4357877,13.9187688 Z M35.5038224,13.6780146 L35.5650123,13.6780146 C35.601672,13.6780146 35.6261814,13.7055555 35.6261814,13.7330029 C35.6261814,13.7742324 35.6139267,13.7880146 35.5650123,13.7880146 L35.5038224,13.7880146 L35.5038224,13.6780146 Z M35.5038224,13.8427468 L35.5650123,13.8427468 L35.6261814,13.9820808 L35.6874129,13.9820808 L35.6261814,13.8427468 C35.6628828,13.8300585 35.6874129,13.7920367 35.6874129,13.741413 C35.6874129,13.6780146 35.6384152,13.6273045 35.5650123,13.6273045 L35.4426325,13.6273045 L35.4426325,13.9820808 L35.5038433,13.9820808 L35.5038433,13.8427468 L35.5038224,13.8427468 Z M6.6,18.3533543 L8.12964296,18.3533543 L8.12964296,11.2200216 L6.6,11.2200216 L6.6,18.3533543 Z M12.0576961,11.22 L10.5770509,11.22 C10.5525624,12.8291279 9.64703127,14.222835 8.34989321,14.9070327 L10.6381991,18.3533327 L12.4982382,18.3533327 L10.417928,15.2237441 C11.4458389,14.1721465 12.0332493,12.7531275 12.0576961,11.22 L12.0576961,11.22 Z M35.5527577,13.526057 C35.699605,13.526057 35.8219223,13.6527027 35.8219223,13.8047466 C35.8219223,13.9567905 35.699605,14.0835226 35.5527577,14.0835226 C35.4059519,14.0835226 35.2835096,13.9567905 35.2835096,13.8047466 C35.2835096,13.6527027 35.4059519,13.526057 35.5527577,13.526057 L35.5527577,13.526057 Z M35.5527577,14.1468346 C35.7363065,14.1468346 35.8831539,13.9947907 35.8831539,13.804725 C35.8831539,13.6146593 35.7363065,13.4626154 35.5527577,13.4626154 C35.369188,13.4626154 35.2223406,13.6146593 35.2223406,13.804725 C35.2223406,13.9947907 35.369188,14.1468346 35.5527577,14.1468346 L35.5527577,14.1468346 Z" id="Page-1" fill="#EB6F93" fill-rule="nonzero"></path>
            </g>
        </g>
    </g>
</svg>