<?xml version="1.0" encoding="UTF-8"?>
<svg viewBox="0 0 44 31" version="1.1" xmlns="http://www.w3.org/2000/svg" xmlns:xlink="http://www.w3.org/1999/xlink">
    <!-- Generator: Sketch 57.1 (83088) - https://sketch.com -->
    <title>Amex</title>
    <desc>Created with Sketch.</desc>
    <g id="Desktop" stroke="none" stroke-width="1" fill="none" fill-rule="evenodd">
        <g id="Home" transform="translate(-542.000000, -3389.000000)">
            <g id="Amex" transform="translate(542.000000, 3389.000000)">
                <path d="M0.33,1.98029314 L0.33,28.3797069 C0.33,29.2874664 1.07280866,30.03 1.98487411,30.03 L41.5751259,30.03 C42.4884982,30.03 43.23,29.2905204 43.23,28.3797069 L43.23,1.98029314 C43.23,1.07253356 42.4871913,0.33 41.5751259,0.33 L1.98487411,0.33 C1.07150183,0.33 0.33,1.06947958 0.33,1.98029314 Z" id="Rectangle-Copy-4" stroke="#E6E7E8" stroke-width="0.66" fill="#FFFFFF"></path>
                <path d="M11.1958804,11.22 L13.6692359,17.36196 L13.6692359,11.22 L16.2456478,11.22 L18.1908389,15.85188 L20.1102658,11.22 L22.6866777,11.22 L22.6866777,18.48 L20.9604817,18.48 L20.9604817,13.67388 L18.9895266,18.48 L17.4307973,18.48 L15.2794934,13.23828 L15.2794934,18.48 L12.0718605,18.48 L11.4535216,16.86828 L8.4391196,16.86828 L7.85942691,18.48 L5.94,18.48 L8.74828904,11.22 L11.1958804,11.22 Z M31.0728987,11.22 L32.863505,13.398 L34.6927575,11.22 L36.96,11.22 L33.9842442,14.85 L36.96,18.48 L34.6927575,18.48 L32.8377409,16.18584 L30.931196,18.48 L23.9748837,18.48 L23.9748837,11.22 L31.0728987,11.22 Z M29.2307641,11.78628 L29.2307641,12.87528 L25.6366694,12.87528 L25.6366694,14.02236 L29.2307641,14.02236 L29.2307641,15.66312 L25.6366694,15.66312 L25.6366694,16.8102 L29.2307641,16.8102 L29.2307641,17.754 L31.7170017,14.85 L29.2307641,11.78628 Z M9.90767442,12.80268 L9.04457641,15.213 L10.8223007,15.213 L9.90767442,12.80268 Z" id="Combined-Shape" fill="#016FD0" fill-rule="nonzero"></path>
            </g>
        </g>
    </g>
</svg>