<?xml version="1.0" encoding="UTF-8"?>
<svg viewBox="0 0 29 28" version="1.1" xmlns="http://www.w3.org/2000/svg" xmlns:xlink="http://www.w3.org/1999/xlink">
    <!-- Generator: Sketch 57.1 (83088) - https://sketch.com -->
    <title>Paw Icon</title>
    <desc>Created with Sketch.</desc>
    <g id="Desktop" stroke="none" stroke-width="1" fill="none" fill-rule="evenodd">
        <g id="Home" transform="translate(-597.000000, -936.000000)" fill="#FF5C00">
            <path d="M613.10623,948.04304 C613.679327,948.604339 614.134434,949.269174 614.445062,950.000636 C614.864049,951.000524 615.283037,952.005206 615.711656,953.005095 C616.363735,954.402829 617.171368,955.726747 618.119628,956.95336 C618.859357,957.970984 619.200808,959.212935 619.082817,960.454887 C618.95375,962.258137 617.524859,963.716268 615.68276,963.924298 C615.343236,963.972711 615.000341,963.997636 614.656964,963.999554 C614.363994,964.003149 614.077713,963.984441 613.711723,963.964514 L613.481873,963.952579 L611.791477,963.421957 C609.139817,962.518894 606.413511,961.837283 603.642898,961.384793 C602.696083,961.233323 601.79502,960.880534 601.00376,960.35183 C599.631216,959.538882 598.822619,958.061577 598.894377,956.497514 C598.928088,954.709123 600.093547,952.681065 602.265538,952.169617 C604.437529,951.65769 606.171269,950.437308 607.765347,948.982053 C608.324478,948.413564 608.975594,947.937587 609.691725,947.573773 C610.818656,947.019185 612.180605,947.206604 613.10623,948.04304 Z M624.65631,948.292293 C626.264835,949.261504 626.45651,951.802448 625.083484,953.968554 C623.710458,956.134659 621.293335,957.104829 619.68481,956.135618 C618.075803,955.166886 617.88461,952.625463 619.257154,950.459837 C620.63018,948.293731 623.047303,947.323561 624.65631,948.292293 Z M603.848539,946.702346 C603.928965,949.247124 602.462029,951.356189 600.572252,951.41323 C598.681994,951.47027 597.084063,949.453717 597.003155,946.908459 C596.922729,944.363681 598.389666,942.254616 600.279924,942.198055 C602.170182,942.141014 603.767631,944.157567 603.848539,946.702346 Z M620.459214,938.789039 C622.30661,939.668615 622.793984,942.398416 621.547136,944.886633 C620.300769,947.37485 617.792625,948.678636 615.944747,947.79906 C614.097351,946.919484 613.610459,944.189683 614.857307,941.701466 C616.103673,939.213728 618.611817,937.909463 620.459214,938.789039 Z M608.793551,936.006511 L608.793551,936.006511 C610.844662,936.145997 612.346755,938.498563 612.14882,941.260959 C611.950403,944.022875 610.127086,946.148716 608.076457,946.009231 C606.025346,945.869265 604.523253,943.516699 604.721188,940.754783 C604.907934,938.154881 606.534036,936.118848 608.434319,936.005 L608.613239,936 Z" id="Paw-Icon"></path>
        </g>
    </g>
</svg>