<?xml version="1.0" encoding="UTF-8"?>
<svg viewBox="0 0 460 374" version="1.1" xmlns="http://www.w3.org/2000/svg" xmlns:xlink="http://www.w3.org/1999/xlink">
    <!-- Generator: Sketch 57.1 (83088) - https://sketch.com -->
    <title>Orange Shape</title>
    <desc>Created with Sketch.</desc>
    <g id="Desktop" stroke="none" stroke-width="1" fill="none" fill-rule="evenodd">
        <g id="Home" transform="translate(-155.000000, -1723.000000)" fill="#FF5C00">
            <path d="M462.663702,1795.85771 C443.640236,1780.57152 424.757134,1765.08896 405.924516,1749.70133 C392.065979,1738.48801 376.046448,1730.11587 358.779472,1725.03682 C331.629759,1718.22236 302.67007,1728.85608 286.18183,1751.70835 C275.823999,1766.45583 267.935691,1782.73969 262.844297,1799.88669 C246.585728,1845.4952 225.086205,1887.92357 187.441738,1920.93847 C149.792223,1953.94388 148.059081,2006.38102 166.226339,2042.15155 C181.277144,2073.88045 212.857646,2094.61864 248.615304,2096.26066 C269.861686,2098.39636 291.430998,2095.89188 311.786548,2088.91878 C371.44936,2068.69703 432.647365,2053.47924 494.69862,2043.43309 L533.780787,2036.13631 C543.570516,2031.52887 550.638395,2028.47791 557.558886,2024.68951 C564.342397,2021.03481 570.874048,2016.92956 577.091535,2012.3947 C611.400108,1988.87256 624.355357,1944.94698 607.920989,1907.87782 C597.178711,1882.04072 577.333019,1861.04283 551.958399,1848.68231 C520.250876,1834.37959 490.304917,1816.66877 462.663702,1795.85771 L462.663702,1795.85771 Z" id="Orange-Shape"></path>
        </g>
    </g>
</svg>