<?xml version="1.0" encoding="UTF-8"?>
<svg viewBox="0 0 22 15" version="1.1" xmlns="http://www.w3.org/2000/svg" xmlns:xlink="http://www.w3.org/1999/xlink">
    <!-- Generator: Sketch 57.1 (83088) - https://sketch.com -->
    <title>YouTube</title>
    <desc>Created with Sketch.</desc>
    <g id="Desktop" stroke="none" stroke-width="1" fill="none" fill-rule="evenodd">
        <g id="Home" transform="translate(-1088.000000, -3198.000000)" fill="#000000">
            <path d="M1109.61961,3200.41359 C1109.35022,3199.26813 1108.39329,3198.42424 1107.24106,3198.29845 C1104.51334,3198.0001 1101.75213,3197.9991 1099.00341,3198.0001 C1096.2544,3197.9991 1093.49233,3198.0001 1090.76434,3198.29845 C1089.61352,3198.42424 1088.65631,3199.26813 1088.38805,3200.41359 C1088.00454,3202.04278 1088,3203.82192 1088,3205.49998 C1088,3207.17804 1088,3208.95802 1088.38379,3210.5872 C1088.65205,3211.73155 1089.60898,3212.57655 1090.76121,3212.70235 C1093.48893,3212.99975 1096.24986,3213.00169 1098.99886,3212.99975 C1101.74901,3213.00169 1104.50993,3212.99975 1107.2368,3212.70235 C1108.38875,3212.57655 1109.34568,3211.73155 1109.61535,3210.5872 C1109.99886,3208.95802 1110,3207.17804 1110,3205.49998 C1110,3203.82192 1110.0034,3202.04278 1109.61961,3200.41359 Z M1096.16129,3208.84083 L1096.16129,3201.72399 C1098.49215,3202.91388 1100.80854,3204.09516 1103.15502,3205.29283 C1100.81535,3206.47938 1098.49868,3207.65511 1096.16129,3208.84083 Z" id="YouTube"></path>
        </g>
    </g>
</svg>