<?xml version="1.0" encoding="UTF-8"?>
<svg viewBox="0 0 19 16" version="1.1" xmlns="http://www.w3.org/2000/svg" xmlns:xlink="http://www.w3.org/1999/xlink">
    <!-- Generator: Sketch 57.1 (83088) - https://sketch.com -->
    <title>Twitter</title>
    <desc>Created with Sketch.</desc>
    <g id="Desktop" stroke="none" stroke-width="1" fill="none" fill-rule="evenodd">
        <g id="Home" transform="translate(-1039.000000, -3197.000000)" fill="#000000">
            <path d="M1058,3198.89398 C1057.30099,3199.21529 1056.54964,3199.43245 1055.76123,3199.53 C1056.56588,3199.03012 1057.18404,3198.23857 1057.47512,3197.29532 C1056.72187,3197.75828 1055.88767,3198.09435 1054.99971,3198.27548 C1054.28873,3197.49043 1053.27565,3197 1052.15446,3197 C1050.00176,3197 1048.25633,3198.80844 1048.25633,3201.03908 C1048.25633,3201.35566 1048.29081,3201.66398 1048.35731,3201.95959 C1045.11762,3201.79116 1042.24529,3200.18305 1040.32278,3197.73928 C1039.98724,3198.33583 1039.79496,3199.02973 1039.79496,3199.77 C1039.79496,3201.17138 1040.48314,3202.40769 1041.52909,3203.13201 C1040.89012,3203.11104 1040.28905,3202.92932 1039.76352,3202.62681 C1039.76313,3202.64365 1039.76313,3202.66048 1039.76313,3202.67761 C1039.76313,3204.63459 1041.10682,3206.26712 1042.89006,3206.63823 C1042.56298,3206.73057 1042.2186,3206.77999 1041.86311,3206.77999 C1041.61193,3206.77999 1041.36768,3206.75459 1041.12971,3206.70744 C1041.6257,3208.3121 1043.06524,3209.47999 1044.77106,3209.51248 C1043.43698,3210.5959 1041.75624,3211.24167 1039.92986,3211.24167 C1039.61522,3211.24167 1039.30495,3211.22247 1039,3211.18517 C1040.7251,3212.3312 1042.77407,3213 1044.9754,3213 C1052.14534,3213 1056.06627,3206.84515 1056.06627,3201.50746 C1056.06627,3201.33233 1056.06238,3201.15819 1056.05488,3200.98494 C1056.81659,3200.41537 1057.47741,3199.70404 1058,3198.89398" id="Twitter"></path>
        </g>
    </g>
</svg>