<?xml version="1.0" encoding="UTF-8"?>
<svg viewBox="0 0 16 16" version="1.1" xmlns="http://www.w3.org/2000/svg" xmlns:xlink="http://www.w3.org/1999/xlink">
    <!-- Generator: Sketch 57.1 (83088) - https://sketch.com -->
    <title>Instagram</title>
    <desc>Created with Sketch.</desc>
    <g id="Desktop" stroke="none" stroke-width="1" fill="none" fill-rule="evenodd">
        <g id="Home" transform="translate(-992.000000, -3197.000000)" fill="#000000">
            <path d="M998.866576,3197.00052 L1001.13254,3197.00052 C1002.31106,3197.00426 1002.62256,3197.01646 1003.29811,3197.04729 C1004.14968,3197.0861 1004.73124,3197.22136 1005.24018,3197.41916 C1005.76623,3197.62363 1006.21239,3197.89715 1006.65717,3198.34193 C1007.10199,3198.78671 1007.37551,3199.23287 1007.57997,3199.75897 C1007.77773,3200.2679 1007.91299,3200.84942 1007.95185,3201.70099 C1007.99075,3202.55432 1008,3202.82678 1008,3204.99959 C1008,3207.17235 1007.99075,3207.44482 1007.95185,3208.29815 C1007.91299,3209.14972 1007.77773,3209.73124 1007.57997,3210.24017 C1007.37551,3210.76622 1007.10199,3211.21243 1006.65717,3211.65721 C1006.21239,3212.10198 1005.76623,3212.37551 1005.24018,3212.57997 C1004.73124,3212.77777 1004.14968,3212.91303 1003.29811,3212.95184 C1002.44479,3212.99079 1002.17232,3213 999.999567,3213 C997.826765,3213 997.554349,3212.99079 996.701021,3212.95184 C995.849451,3212.91303 995.26789,3212.77777 994.758956,3212.57997 C994.232905,3212.37551 993.786697,3212.10198 993.341969,3211.65721 C992.897148,3211.21243 992.623623,3210.76622 992.419161,3210.24017 C992.221406,3209.73124 992.086147,3209.14972 992.04729,3208.29815 C992.016491,3207.62259 992.004276,3207.31109 992.000524,3206.13257 L992.000524,3203.86659 C992.004276,3202.68805 992.016491,3202.37654 992.04729,3201.70099 C992.086147,3200.84942 992.221406,3200.2679 992.419161,3199.75897 C992.623623,3199.23287 992.897148,3198.78671 993.341969,3198.34193 C993.786697,3197.89715 994.232905,3197.62363 994.758956,3197.41916 C995.26789,3197.22136 995.849451,3197.0861 996.701021,3197.04729 C997.376573,3197.01646 997.688045,3197.00426 998.866576,3197.00052 L1001.13254,3197.00052 Z M1000.49582,3198.44083 L999.503316,3198.44083 C997.817082,3198.44221 997.540021,3198.45199 996.766708,3198.48727 C995.986699,3198.52289 995.563065,3198.6532 995.281166,3198.76274 C994.907723,3198.9079 994.641228,3199.08128 994.361226,3199.36124 C994.081317,3199.64119 993.90794,3199.90769 993.762781,3200.28113 C993.653242,3200.56303 993.522886,3200.98667 993.487313,3201.76672 C993.452033,3202.54004 993.442213,3202.8171 993.440822,3204.50334 L993.440822,3205.49584 C993.442213,3207.18204 993.452033,3207.45914 993.487313,3208.23241 C993.522886,3209.01242 993.653242,3209.43606 993.762781,3209.71801 C993.90794,3210.0914 994.081317,3210.35795 994.361272,3210.6379 C994.641228,3210.91786 994.907723,3211.09124 995.281166,3211.23635 C995.563065,3211.34593 995.986699,3211.47624 996.766708,3211.51182 C997.504789,3211.54549 997.790743,3211.55594 999.281887,3211.55802 L1000.71725,3211.55802 C1002.20839,3211.55594 1002.49435,3211.54549 1003.23243,3211.51182 C1004.01244,3211.47624 1004.43607,3211.34593 1004.71797,3211.23635 C1005.09141,3211.09124 1005.35791,3210.91786 1005.63786,3210.6379 C1005.91782,3210.35795 1006.09119,3210.0914 1006.23635,3209.71801 C1006.34589,3209.43606 1006.4762,3209.01242 1006.51182,3208.23241 C1006.5455,3207.49429 1006.55594,3207.20826 1006.55803,3205.71722 L1006.55803,3204.28195 C1006.55594,3202.79089 1006.5455,3202.50488 1006.51182,3201.76668 C1006.4762,3200.98667 1006.34589,3200.56303 1006.23635,3200.28113 C1006.09119,3199.90769 1005.91782,3199.64119 1005.63786,3199.36124 C1005.35791,3199.08128 1005.09141,3198.9079 1004.71797,3198.76274 C1004.43607,3198.6532 1004.01244,3198.52289 1003.23243,3198.48727 C1002.45907,3198.45199 1002.18205,3198.44221 1000.49582,3198.44083 Z M999.999567,3200.89126 C1002.26854,3200.89126 1004.10787,3202.73059 1004.10787,3204.99957 C1004.10787,3207.26851 1002.26854,3209.10788 999.999567,3209.10788 C997.730594,3209.10788 995.891222,3207.26851 995.891222,3204.99957 C995.891222,3202.73059 997.730594,3200.89126 999.999567,3200.89126 Z M999.999567,3202.33277 C998.526747,3202.33277 997.332772,3203.52675 997.332772,3204.99957 C997.332772,3206.4724 998.526747,3207.66638 999.999567,3207.66638 C1001.47239,3207.66638 1002.66636,3206.4724 1002.66636,3204.99957 C1002.66636,3203.52675 1001.47239,3202.33277 999.999567,3202.33277 Z M1004.27017,3199.76886 C1004.80043,3199.76886 1005.23027,3200.19869 1005.23027,3200.72891 C1005.23027,3201.25912 1004.80043,3201.68896 1004.27017,3201.68896 C1003.73996,3201.68896 1003.31017,3201.25912 1003.31017,3200.72891 C1003.31017,3200.19869 1003.73996,3199.76886 1004.27017,3199.76886 Z" id="Instagram"></path>
        </g>
    </g>
</svg>